<?xml version="1.0" encoding="utf-8"?>
<!-- Generator: Adobe Illustrator 19.2.1, SVG Export Plug-In . SVG Version: 6.00 Build 0)  -->
<svg version="1.1" id="Calque_1" xmlns="http://www.w3.org/2000/svg" xmlns:xlink="http://www.w3.org/1999/xlink" x="0px" y="0px"
	 viewBox="0 0 91.3 89.5" style="enable-background:new 0 0 91.3 89.5;" xml:space="preserve">
<style type="text/css">
	.st0{fill:#FFED00;}
</style>
<path class="st0" d="M1.8,44.7C1.8,20,21.8,0,46.5,0c24.7,0,44.7,20,44.7,44.7c0,24.7-20,44.7-44.7,44.7
	C21.8,89.5,1.8,69.4,1.8,44.7"/>
<path d="M81.2,42.4l-4.5,4.3c-0.3,0.3-0.6,0.5-1.1,0.4c-0.4-0.1-0.6-0.3-0.9-0.6l-4.4-6c-0.3-0.4-0.6-0.7-0.9-0.5
	c-0.7,0.5-0.5,0.8-0.3,1.1l5.1,6.8c0.3,0.3,0.5,0.4,0.9,0.4c0.3,0,0.5,0,0.7-0.2l2.2-1.1c0.2-0.1,0.4-0.1,0.6,0.1
	c0.3,0.2,0.4,0.4,0.3,0.8c-0.3,1.4-0.6,2.1-1.3,3.3c-0.6,1-1,1.5-1.9,2.3l-0.5,0.5c-0.5,0.4-0.7,0.7-0.9,1.3
	c-0.1,0.3-0.2,0.5-0.1,0.9l0.3,2.6c0.1,0.4,0,0.6-0.2,0.9c-0.2,0.3-0.3,0.4-0.6,0.5l-1.1,0.7c-0.3,0.2-0.5,0.4-0.7,0.7
	c-0.1,0.3-0.2,0.5-0.2,0.8l0.2,0.8C68,70.8,69,73.7,63.6,73.7c-1.8,0-3-5.2-3.6-7.7l-0.6-3.2c-0.1-0.2-0.2-0.4-0.1-0.6
	c0.1-0.2,0.1-0.3,0.3-0.3c0.4-0.2,0.6-0.5,0.7-1c0-0.3-0.1-0.5-0.2-0.7l-2.2-2.5c-0.3-0.3-0.4-0.5-0.6-0.9c-0.1-0.2-0.1-0.4-0.2-0.7
	v-1.4c-0.1-0.7-0.3-1.2-0.9-1.6c-0.5-0.4-1-0.6-1.6-0.6l-4.7,0.2c-0.6,0-1-0.1-1.6-0.3c-0.4-0.2-0.6-0.3-1-0.7L44.5,48
	c-0.2-0.2-0.3-0.4-0.4-0.7c-0.1-0.3-0.2-0.5-0.2-0.8l-0.1-2.4c0-0.5,0.1-0.8,0.3-1.3c0.1-0.2,0.2-0.4,0.4-0.6l4.5-4.2
	c0.3-0.2,0.4-0.3,0.7-0.4c0.4-0.2,0.7-0.2,1.2-0.2h7.3c0.2,0,0.3,0.1,0.4,0.3c0.1,0.1,0.1,0.2,0.1,0.3l-0.1,0.6
	c0,0.2,0.1,0.3,0.2,0.4c0.1,0,0.1,0.1,0.2,0.1c0.4-0.1,0.7-0.1,1.1,0c0.2,0,0.3,0.1,0.5,0.2l1.9,1.1c0.2,0.1,0.4,0.1,0.5,0
	c0.1-0.1,0.2-0.2,0.2-0.3c0-0.1,0-0.2,0.1-0.3c0.1-0.1,0.1-0.2,0.2-0.3l0.6-0.5c0.1-0.1,0.2-0.1,0.4-0.1c0.1,0,0.2,0,0.3,0.1
	l1.2,0.6c0.4,0.2,0.6,0.2,1.1,0.3c0.2,0,0.3,0,0.5-0.1l1.7-0.3c0.3,0,0.5-0.2,0.6-0.4C70,39,70,38.9,70,38.7l0-2.1
	c0-0.2-0.1-0.3-0.3-0.4c-0.2,0-0.3,0.1-0.4,0.4c-0.1,0.3-0.4,0.2-0.7,0.2c-0.2,0-0.4,0-0.7,0l-0.5,0c-0.1,0-0.2,0-0.3-0.1
	c-0.1,0-0.2-0.1-0.3-0.2l-0.5-0.7c-0.1-0.1-0.1-0.2-0.1-0.3c0-0.2,0-0.3,0.2-0.4l2.1-1.5c0.2-0.1,0.3-0.2,0.5-0.3
	c0.2-0.1,0.3-0.1,0.5-0.1l1.5,0c0.3,0,0.6-0.4,0.5-0.7c-0.1-0.1-0.1-0.2-0.2-0.3l-1.6-0.9c-0.1-0.1-0.2-0.1-0.3-0.1
	c-0.1,0-0.2,0-0.2,0.1l-0.3,0.4c-0.1,0.1-0.2,0.2-0.4,0.3c-0.2,0.1-0.3,0.1-0.5,0c-0.3-0.1-0.5-0.1-0.8,0.1
	c-0.3,0.2-0.5,0.4-0.5,0.8v0.4c0,0.3,0,0.4-0.2,0.6c-0.1,0.2-0.2,0.3-0.4,0.4c-0.4,0.3-0.6,0.5-0.9,0.8c-0.1,0.1-0.3,0.1-0.3,0.3
	l0,1c0,0.3-0.2,0.3-0.4,0.3c-0.2,0-0.2-0.3-0.4-0.4l-0.7-0.6c-0.2-0.2-0.3-0.3-0.4-0.5c-0.2-0.3,0.2-0.6-0.1-0.9l-1.5-1.6
	c-0.2-0.3-0.7-0.1-0.8,0.2c0,0.1,0,0.2,0,0.3l1.5,1.6c0.1,0.1,0.2,0.2,0.2,0.4c0,0.2-0.1,0.3-0.1,0.4c0,0.1,0.1,0.2,0.1,0.3
	c0,0.2,0,0.3-0.2,0.4l-0.8,0.7c-0.1,0.1-0.3,0.1-0.4,0c0-0.1,0-0.1,0-0.2c0.2-0.2,0.3-0.2,0.3-0.4c0-0.1,0-0.1-0.1-0.2l-2.3-2.9
	c-0.1-0.1-0.1-0.1-0.3-0.2c-0.2-0.1-0.3-0.1-0.5-0.1l-1.1,0.1c-0.3,0-0.5,0.1-0.6,0.4c-0.1,0.1-0.1,0.2-0.1,0.3c0,0.2,0,0.4-0.2,0.6
	c-0.2,0.2-0.4,0.2-0.6,0.2c-0.2,0-0.4,0.1-0.5,0.3c0,0.1,0,0.2,0,0.3c0.1,0.3-0.1,0.5-0.3,0.7c-0.1,0.1-0.2,0.1-0.3,0.2l-1.9,0.6
	c-0.2,0.1-0.3,0.1-0.4,0c-0.1,0-0.2,0-0.3-0.1l-1.3-1.1c-0.1-0.1-0.1-0.1-0.1-0.2c0-0.1,0-0.2,0-0.3l0.8-2.4
	c0.1-0.1,0.1-0.2,0.3-0.2c0.1-0.1,0.3-0.1,0.4-0.1l2.5,0.3c0.1,0,0.2,0,0.3,0c0.1,0,0.1-0.1,0.2-0.2l0.2-0.7c0.1-0.1,0-0.3,0-0.4
	c-0.1-0.1-0.1-0.2-0.2-0.2L54.3,31c-0.2-0.1-0.2-0.3-0.2-0.4c0.1-0.1,0.2-0.2,0.4-0.2l0.6,0.1c0.1,0,0.2,0,0.3,0
	c0.1,0,0.2,0,0.3-0.1l3-1.9c0.2-0.1,0.3-0.2,0.3-0.3C59,28,59,27.9,59,27.8V27c0.1-0.2,0.3-0.3,0.4-0.2c0.2,0,0.3,0.2,0.3,0.3v0.8
	c-0.1,0.1,0,0.2,0,0.3c0,0.1,0.1,0.1,0.2,0.1l1.1,0.4c0.1,0,0.1,0.1,0.2,0.1c0.1,0,0.2,0,0.3-0.2c0.1-0.2,0.2-0.3,0.3-0.4
	c0.1-0.1,0.3-0.2,0.4-0.3c0.2,0,0.3-0.1,0.4-0.3c0.1-0.2,0.1-0.3,0.1-0.4c0-0.2,0-0.3,0.1-0.4c0.1-0.2,0.2-0.2,0.4-0.3
	c0.1,0,0.2-0.1,0.3-0.2c0.1-0.1,0.1-0.2,0.1-0.3v-0.3c0-0.1,0-0.2,0.1-0.3c0.1-0.1,0.2-0.1,0.3-0.2l1.2-0.5c0.1-0.1,0.2-0.2,0.1-0.4
	c-0.1-0.1-0.1-0.1-0.2-0.1L64,24.5c-0.1,0.1-0.2,0.1-0.3,0.1c-0.1,0-0.2-0.1-0.2-0.2l0.2-1.8c0-0.2-0.2-0.4-0.4-0.4
	c-0.2,0-0.3,0.1-0.4,0.3l-0.3,1.2c0,0.3,0,0.5-0.2,0.8c-0.1,0.2-0.4,0.2-0.5,0.4c-0.1,0.1-0.1,0.2-0.2,0.4v1.2c0,0.1,0,0.2,0,0.3
	c0,0.1-0.1,0.2-0.2,0.3l-0.4,0.3c-0.1,0.1-0.2,0.2-0.3,0.1c-0.1,0-0.2-0.1-0.3-0.2L60.3,26c0-0.1-0.1-0.1-0.2-0.2
	c-0.1,0-0.2,0-0.2,0.1l-0.4,0.4c-0.1,0.1-0.2,0.1-0.4,0.1c-0.2-0.1-0.3-0.2-0.3-0.4v-1c0-0.2,0-0.3,0-0.5c0-0.2,0.1-0.3,0.2-0.5
	l2.7-3.4c0.2-0.1,0.3-0.2,0.5-0.3c0.1,0,0.2-0.1,0.3-0.1h2.1c0.2,0,0.3,0,0.5,0c0.2,0,0.3,0.1,0.5,0.1l0.6,0.6
	c0.1,0.2,0.3,0.3,0.6,0.4c0.3,0.1,0.4,0,0.7-0.1l0.5-0.4c0.3-0.1,0.4-0.3,0.4-0.6c0-0.2,0-0.3-0.1-0.5l-2.4-2.7
	c-0.2-0.3-0.1-0.6,0.1-0.8c0.3-0.2,0.6-0.2,0.8,0.1l1.6,1.8l0.5,0.5c0.6,0.7,1.5,0.8,2,0.3c0.6-0.6,0.5-1.5-0.2-2.1l-2.1-2
	c-0.3-0.3-0.4-0.7-0.2-1.1c0.1-0.2,0.2-0.3,0.3-0.5l0.9-0.6c7.5,5.9,12.9,14.4,14.8,24.1l-8.1,0.1c-0.4,0-0.6,0.1-0.8,0.4
	c-0.2,0.3-0.3,0.6-0.1,1l0.6,1.3c0.1,0.2,0.3,0.3,0.5,0.4c0.3,0.1,0.6,0,0.8-0.2l1.3-1c0.2-0.2,0.4-0.2,0.7-0.2c0.3,0,0.4,0,0.6,0.2
	l0.9,0.9c0.4,0.4,0.6,0.8,0.6,1.4C81.7,41.6,81.6,42,81.2,42.4 M38.3,16.1c-0.1-0.3-0.1-0.6,0.1-0.9l2-2.1c0.3-0.2,0.6-0.3,1-0.3
	c0.3,0,0.5,0,0.8,0.1c0.3,0.1,0.6,0.1,0.9,0c0.4-0.1,0.7-0.3,1-0.7l1.3-2.5c0.2-0.5-0.1-0.7-0.3-1c-0.3-0.3-0.3-0.5-0.9-0.5H42
	c-0.3,0-0.4,0-0.7,0.1c-0.2,0.1-0.4,0.3-0.5,0.5l-1.4,2.3c-0.2,0.3-0.4,0.5-0.8,0.6c-0.4,0.2-0.8,0.3-1.2,0.2h-1.2
	c-0.2,0-0.4,0-0.6,0.1c-0.4,0.2-0.5,0.4-0.7,0.8l-2.5,5.8c-0.2,0.3-0.4,0.4-0.7,0.6c-0.4,0.3-0.7,0.4-1.2,0.4h-1.1
	c-0.3,0-0.7-0.1-1-0.3c-0.2-0.2-0.3-0.3-0.5-0.7l-4.3-8.9c6.1-3.7,13.3-5.8,21-5.8c0.5,0,1,0,1.4,0l-0.4,1.5
	c-0.1,0.3-0.1,0.4-0.1,0.7c0,0.2,0,0.4,0.4,0.6l3.7,1c0.4,0.1,0.6,0.3,0.8,0.7c0.1,0.3,0.1,0.6-0.1,0.9l-2.8,4.3
	c-0.3,0.4-0.5,0.5-0.9,0.7c-0.3,0.1-0.4,0.1-0.7,0.1c-0.2,0-0.3,0-0.4,0.1c-0.4,0.1-0.6,0.4-0.8,0.8c-0.1,0.3-0.2,0.4-0.4,0.5
	c-0.2,0.1-0.3,0.2-0.5,0.2l-5,0.6C38.7,16.6,38.4,16.4,38.3,16.1 M37.8,54.5L37.8,54.5c0,0.5-0.2,1.4-0.4,1.9l-2.5,5.3
	c-0.2,0.5-0.7,1.2-1.1,1.6l-8.2,9.9c-0.4,0.4-0.3,0.7,0.3,0.7h0.9c0.5,0,1,0.4,1,0.9c0,0.5-0.4,0.9-1,0.9h-4c-0.5,0-1-0.4-1-1V61.8
	c0-0.5,0.4-1,1-1h1.1c0.5,0,1-0.4,1-1v-1.1c0-0.5-0.4-1-1-1h-1.1c-0.5,0-1-0.4-1-1v-6.1c0-0.5-0.4-1-1-1h-1.7
	c-0.5,0-1.3-0.3-1.8-0.6l-5.3-3.7c-0.4-0.3-1-0.9-1.3-1.4l-2.5-4.2c-0.3-0.5-0.9-0.8-1.5-0.8H5.7c-0.4,0-0.8-0.2-1.1-0.5
	c1.7-10.9,7.7-20.3,16.2-26.5v6.3c0,0.5,0.4,1.2,0.8,1.5l1.8,1.3c0.4,0.3,1.2,0.6,1.8,0.6h1.5c0.5,0,1,0.4,1,0.8
	c0,0.4-0.3,1.1-0.7,1.5l-2.1,2.2c-0.4,0.4-0.2,0.7,0.3,0.7l1.4,0c0.5,0,1,0.4,1,1l0,3.5c0,0.5,0.4,1,1,1h1.6c0.5,0,1,0.3,1,0.7
	c0,0.4-0.4,0.7-1,0.7h-4.8c-0.5,0-1.3,0.3-1.8,0.6l-2,1.5c-0.4,0.3-0.8,1-0.8,1.6v5.9c0,0.5-0.4,1-1,1h-0.3c-0.5,0-1-0.4-1-1v-3.4
	c0-0.5-0.4-1-1-1h-2.6c-0.5,0-1,0.4-1,1l0,2.7c0,0.5,0.3,1.3,0.8,1.6l3.9,3.1c0.4,0.3,1.2,0.6,1.7,0.6l6.5,0c0.5,0,1.4,0.2,1.8,0.5
	l8.3,4.3c0.5,0.2,0.9,0.9,0.9,1.4V54.5z M52.7,20.8l1.3,0.1c0.5,0,0.4,0.6,0.1,0.8c-0.1,0.2-0.3,0.2-0.5,0.2l-0.5-0.3
	c0,0-0.1,0-0.1-0.1c-0.1,0-0.1,0-0.2,0h-0.2c-0.3,0-0.4-0.2-0.4-0.4C52.3,20.9,52.4,20.8,52.7,20.8 M54.4,27.7
	c0,0.1-0.1,0.1-0.1,0.2l-0.9,0.8c-0.1,0.1-0.1,0.1-0.2,0.1c-0.1,0-0.2-0.1-0.2-0.2L52.8,28c0-0.1,0-0.1,0-0.2c0-0.1,0-0.1,0.1-0.2
	l0.8-0.8c0.1-0.1,0.2-0.1,0.3,0c0.1,0,0.1,0.1,0.2,0.2l0.2,0.5C54.4,27.5,54.4,27.6,54.4,27.7 M55.2,28l-0.7-1.4
	c-0.1-0.1-0.1-0.2-0.1-0.3c0-0.2,0-0.3,0.1-0.4l1-0.7c0.1-0.1,0.2-0.1,0.3,0c0.1,0,0.1,0.1,0.1,0.1l0.1,0.7c0,0.1,0,0.1,0,0.2
	c0,0.1-0.1,0.1-0.1,0.1c-0.1,0-0.2,0.1-0.2,0.2c0,0.1,0,0.3,0.1,0.4l0.6,1.1c0.1,0.1,0.1,0.2,0.1,0.4c-0.1,0.2-0.2,0.3-0.4,0.3
	l-0.8,0.6c-0.1,0.1-0.2,0.1-0.4,0c-0.1,0-0.2-0.1-0.2-0.2l-0.3-0.4c-0.1-0.1-0.1-0.2,0-0.3c0.1-0.2,0.2-0.2,0.4-0.2h0.3
	c0.1,0,0.1,0,0.1-0.1C55.3,28.2,55.3,28.1,55.2,28 M60.9,15.7c0-0.1,0.1-0.2,0.1-0.2l1.1-0.7c0.1-0.1,0.2,0,0.3,0.1
	c0,0.1,0,0.2,0,0.2l-0.2,0.3c-0.1,0.1-0.1,0.2,0,0.3c0.1,0.1,0.1,0.2,0.2,0.1c0.3-0.2,0.3,0.2,0.3,0.3c0,0.1-0.1,0.2-0.2,0.3
	l-0.6,0.5c-0.1,0-0.1,0.1-0.2,0c-0.1,0-0.1,0-0.2-0.1L60.9,16C60.9,15.9,60.9,15.8,60.9,15.7 M44.7,0C20,0,0,20,0,44.7
	c0,24.7,20,44.7,44.7,44.7c24.7,0,44.7-20,44.7-44.7C89.5,20,69.4,0,44.7,0"/>
</svg>
