<?xml version="1.0" encoding="utf-8"?>
<!-- Generator: Adobe Illustrator 19.2.1, SVG Export Plug-In . SVG Version: 6.00 Build 0)  -->
<svg version="1.1" id="artwork" xmlns="http://www.w3.org/2000/svg" xmlns:xlink="http://www.w3.org/1999/xlink" x="0px" y="0px"
	 viewBox="0 0 135 40" xml:space="preserve">
<style type="text/css">
	.st0{fill:#A6A6A6;}
	.st1{fill:#FFFFFF;}
	.st2{fill:url(#SVGID_1_);}
	.st3{fill:url(#SVGID_2_);}
	.st4{fill:url(#SVGID_3_);}
	.st5{fill:url(#SVGID_4_);}
	.st6{opacity:0.2;enable-background:new    ;}
	.st7{opacity:0.12;enable-background:new    ;}
	.st8{opacity:0.25;fill:#FFFFFF;enable-background:new    ;}
	.st9{fill:#FFFFFF;stroke:#FFFFFF;stroke-width:0.2;stroke-miterlimit:10;}
</style>
<g>
	<g>
		<g>
			<path d="M130,40H5c-2.8,0-5-2.2-5-5V5c0-2.8,2.2-5,5-5h125c2.8,0,5,2.2,5,5v30C135,37.8,132.8,40,130,40z"/>
		</g>
		<g>
			<g>
				<path class="st0" d="M130,0.8c2.3,0,4.2,1.9,4.2,4.2v30c0,2.3-1.9,4.2-4.2,4.2H5c-2.3,0-4.2-1.9-4.2-4.2V5
					c0-2.3,1.9-4.2,4.2-4.2H130 M130,0H5C2.2,0,0,2.2,0,5v30c0,2.8,2.2,5,5,5h125c2.8,0,5-2.2,5-5V5C135,2.3,132.8,0,130,0L130,0z"
					/>
			</g>
		</g>
		<path class="st1" d="M68.2,21.8c-2.4,0-4.3,1.8-4.3,4.3c0,2.4,1.9,4.3,4.3,4.3s4.3-1.8,4.3-4.3C72.5,23.5,70.5,21.8,68.2,21.8z
			 M68.2,28.6c-1.3,0-2.4-1.1-2.4-2.6s1.1-2.6,2.4-2.6s2.4,1,2.4,2.6C70.6,27.5,69.5,28.6,68.2,28.6z M58.9,21.8
			c-2.4,0-4.3,1.8-4.3,4.3c0,2.4,1.9,4.3,4.3,4.3s4.3-1.8,4.3-4.3C63.1,23.5,61.2,21.8,58.9,21.8z M58.9,28.6
			c-1.3,0-2.4-1.1-2.4-2.6s1.1-2.6,2.4-2.6s2.4,1,2.4,2.6C61.3,27.5,60.2,28.6,58.9,28.6z M47.8,23.1v1.8h4.3c-0.1,1-0.5,1.8-1,2.3
			c-0.6,0.6-1.6,1.3-3.3,1.3c-2.7,0-4.7-2.1-4.7-4.8s2.1-4.8,4.7-4.8c1.4,0,2.5,0.6,3.3,1.3l1.3-1.3c-1.1-1-2.5-1.8-4.5-1.8
			c-3.6,0-6.7,3-6.7,6.6s3.1,6.6,6.7,6.6c2,0,3.4-0.6,4.6-1.9c1.2-1.2,1.6-2.9,1.6-4.2c0-0.4,0-0.8-0.1-1.1
			C54,23.1,47.8,23.1,47.8,23.1z M93.1,24.5c-0.4-1-1.4-2.7-3.6-2.7s-4,1.7-4,4.3c0,2.4,1.8,4.3,4.2,4.3c1.9,0,3.1-1.2,3.5-1.9
			l-1.4-1c-0.5,0.7-1.1,1.2-2.1,1.2s-1.6-0.4-2.1-1.3l5.7-2.4L93.1,24.5z M87.3,25.9c0-1.6,1.3-2.5,2.2-2.5c0.7,0,1.4,0.4,1.6,0.9
			L87.3,25.9z M82.7,30h1.9V17.5h-1.9V30z M79.6,22.7L79.6,22.7c-0.5-0.5-1.3-1-2.3-1c-2.1,0-4.1,1.9-4.1,4.3c0,2.4,1.9,4.2,4.1,4.2
			c1,0,1.8-0.5,2.2-1h0.1v0.6c0,1.6-0.9,2.5-2.3,2.5c-1.1,0-1.9-0.8-2.1-1.5l-1.6,0.7c0.5,1.1,1.7,2.5,3.8,2.5c2.2,0,4-1.3,4-4.4V22
			h-1.8C79.6,22,79.6,22.7,79.6,22.7z M77.5,28.6c-1.3,0-2.4-1.1-2.4-2.6s1.1-2.6,2.4-2.6s2.3,1.1,2.3,2.6
			C79.7,27.5,78.7,28.6,77.5,28.6z M101.9,17.5h-4.5V30h1.9v-4.7h2.6c2.1,0,4.1-1.5,4.1-3.9S103.9,17.5,101.9,17.5z M101.9,23.5
			h-2.7v-4.3h2.7c1.4,0,2.2,1.2,2.2,2.1C104.1,22.4,103.3,23.5,101.9,23.5z M113.4,21.7c-1.4,0-2.8,0.6-3.3,1.9l1.7,0.7
			c0.4-0.7,1-0.9,1.7-0.9c1,0,1.9,0.6,2,1.6v0.1c-0.3-0.2-1.1-0.5-1.9-0.5c-1.8,0-3.6,1-3.6,2.8c0,1.7,1.5,2.8,3.1,2.8
			c1.3,0,1.9-0.6,2.4-1.2h0.1v1h1.8v-4.8C117.2,23,115.6,21.7,113.4,21.7z M113.2,28.6c-0.6,0-1.5-0.3-1.5-1.1c0-1,1.1-1.3,2-1.3
			c0.8,0,1.2,0.2,1.7,0.4C115.3,27.8,114.3,28.6,113.2,28.6z M123.8,22l-2.1,5.4h-0.1l-2.2-5.4h-2l3.3,7.6l-1.9,4.2h1.9l5.1-11.8
			H123.8z M107,30h1.9V17.5H107V30z"/>
		<g>

				<linearGradient id="SVGID_1_" gradientUnits="userSpaceOnUse" x1="21.8427" y1="366.7072" x2="5.0603" y2="383.4897" gradientTransform="matrix(1 0 0 1 0 -358)">
				<stop  offset="0" style="stop-color:#00A0FF"/>
				<stop  offset="6.574450e-03" style="stop-color:#00A1FF"/>
				<stop  offset="0.2601" style="stop-color:#00BEFF"/>
				<stop  offset="0.5122" style="stop-color:#00D2FF"/>
				<stop  offset="0.7604" style="stop-color:#00DFFF"/>
				<stop  offset="1" style="stop-color:#00E3FF"/>
			</linearGradient>
			<path class="st2" d="M10.5,7.5C10.2,7.8,10,8.3,10,8.9V31c0,0.6,0.2,1.1,0.5,1.4l0.1,0.1L23,20.1V20v-0.1L10.5,7.5L10.5,7.5z"/>

				<linearGradient id="SVGID_2_" gradientUnits="userSpaceOnUse" x1="33.8814" y1="378.05" x2="9.6845" y2="378.05" gradientTransform="matrix(1 0 0 1 0 -358)">
				<stop  offset="0" style="stop-color:#FFE000"/>
				<stop  offset="0.4087" style="stop-color:#FFBD00"/>
				<stop  offset="0.7754" style="stop-color:#FFA500"/>
				<stop  offset="1" style="stop-color:#FF9C00"/>
			</linearGradient>
			<path class="st3" d="M27.1,24.3L23,20.2V20v-0.1l4.1-4.1l0.1,0.1l4.9,2.8c1.4,0.8,1.4,2.1,0,2.9L27.1,24.3L27.1,24.3z"/>

				<linearGradient id="SVGID_3_" gradientUnits="userSpaceOnUse" x1="24.8632" y1="380.2867" x2="2.1049" y2="403.045" gradientTransform="matrix(1 0 0 1 0 -358)">
				<stop  offset="0" style="stop-color:#FF3A44"/>
				<stop  offset="1" style="stop-color:#C31162"/>
			</linearGradient>
			<path class="st4" d="M27.2,24.2L22.9,20L10.5,32.5c0.5,0.5,1.2,0.5,2.1,0.1L27.2,24.2"/>

				<linearGradient id="SVGID_4_" gradientUnits="userSpaceOnUse" x1="7.3359" y1="358.1859" x2="17.4984" y2="368.3484" gradientTransform="matrix(1 0 0 1 0 -358)">
				<stop  offset="0" style="stop-color:#32A071"/>
				<stop  offset="6.850000e-02" style="stop-color:#2DA771"/>
				<stop  offset="0.4762" style="stop-color:#15CF74"/>
				<stop  offset="0.8009" style="stop-color:#06E775"/>
				<stop  offset="1" style="stop-color:#00F076"/>
			</linearGradient>
			<path class="st5" d="M27.2,15.8L12.6,7.5C11.7,7,11,7.1,10.5,7.6L22.9,20L27.2,15.8z"/>
			<g>
				<path class="st6" d="M27.1,24.1l-14.5,8.2c-0.8,0.5-1.5,0.4-2,0l0,0l-0.1,0.1l0,0l0.1,0.1l0,0c0.5,0.4,1.2,0.5,2,0L27.1,24.1
					L27.1,24.1z"/>
				<path class="st7" d="M10.5,32.3C10.2,32,10,31.5,10,30.9V31C10,31.6,10.2,32.1,10.5,32.3L10.5,32.3L10.5,32.3z"/>
			</g>
			<path class="st7" d="M32.1,21.3l-5,2.8l0.1,0.1L32.1,21.3c0.7-0.3,1-0.8,1-1.3l0,0C33.1,20.5,32.7,20.9,32.1,21.3z"/>
			<path class="st8" d="M12.6,7.6l19.5,11.1c0.6,0.4,1,0.8,1,1.3l0,0c0-0.5-0.3-1-1-1.4L12.6,7.5c-1.4-0.8-2.5-0.1-2.5,1.5v0.1
				C10,7.5,11.2,6.8,12.6,7.6z"/>
		</g>
	</g>
	<g>
		<path class="st9" d="M32.7,13V7h1.8c0.9,0,1.7,0.3,2.2,0.8c0.6,0.6,0.8,1.3,0.8,2.2c0,0.9-0.3,1.6-0.8,2.2
			c-0.5,0.5-1.3,0.8-2.2,0.8H32.7z M33.4,12.3h1.1c0.7,0,1.2-0.2,1.6-0.6c0.4-0.4,0.6-1,0.6-1.7s-0.2-1.3-0.6-1.7
			c-0.4-0.4-1-0.6-1.6-0.6h-1.1V12.3z"/>
		<path class="st9" d="M38.6,13V7h0.8v6H38.6z"/>
		<path class="st9" d="M42.5,13.1c-0.4,0-0.9-0.1-1.3-0.4c-0.4-0.3-0.7-0.7-0.8-1.2l0.7-0.3c0.1,0.3,0.3,0.6,0.5,0.8
			c0.3,0.2,0.6,0.3,0.9,0.3c0.3,0,0.6-0.1,0.9-0.3c0.2-0.2,0.4-0.4,0.4-0.7c0-0.3-0.1-0.6-0.4-0.8c-0.2-0.2-0.6-0.4-1.1-0.5
			c-0.5-0.2-0.9-0.4-1.2-0.6c-0.3-0.3-0.4-0.6-0.4-1s0.2-0.8,0.5-1.1C41.5,7,42,6.8,42.5,6.8s0.9,0.1,1.2,0.4s0.5,0.5,0.6,0.8
			l-0.7,0.3c-0.1-0.2-0.2-0.4-0.4-0.5c-0.2-0.2-0.5-0.2-0.8-0.2s-0.5,0.1-0.8,0.2c-0.1,0.2-0.2,0.4-0.2,0.7c0,0.2,0.1,0.4,0.3,0.6
			s0.5,0.3,0.9,0.4c0.3,0.1,0.5,0.2,0.7,0.3c0.2,0.1,0.4,0.2,0.6,0.4c0.2,0.1,0.4,0.3,0.5,0.6c0.1,0.2,0.2,0.5,0.2,0.8
			s-0.1,0.6-0.2,0.8c-0.1,0.2-0.3,0.4-0.5,0.5c-0.3,0-0.5,0.1-0.7,0.1C42.9,13.1,42.7,13.1,42.5,13.1z"/>
		<path class="st9" d="M46.4,13h-0.8V7h2c0.5,0,0.9,0.2,1.3,0.5s0.6,0.8,0.6,1.3s-0.2,0.9-0.6,1.3c-0.4,0.3-0.8,0.5-1.3,0.5h-1.2V13
			z M46.4,9.8h1.3c0.3,0,0.6-0.1,0.8-0.3c0.2-0.2,0.3-0.5,0.3-0.7c0-0.3-0.1-0.5-0.3-0.7c-0.2-0.2-0.5-0.3-0.8-0.3h-1.3V9.8z"/>
		<path class="st9" d="M55.4,12.2c-0.6,0.6-1.3,0.9-2.2,0.9c-0.9,0-1.6-0.3-2.2-0.9s-0.9-1.3-0.9-2.2s0.3-1.6,0.9-2.2
			s1.3-0.9,2.2-0.9c0.9,0,1.6,0.3,2.2,0.9s0.9,1.3,0.9,2.2C56.3,10.9,56,11.6,55.4,12.2z M51.6,11.7c0.4,0.4,1,0.7,1.6,0.7
			s1.2-0.2,1.6-0.7c0.4-0.4,0.7-1,0.7-1.7s-0.2-1.3-0.7-1.7c-0.4-0.4-1-0.7-1.6-0.7S52,7.8,51.6,8.3c-0.4,0.4-0.7,1-0.7,1.7
			S51.1,11.3,51.6,11.7z"/>
		<path class="st9" d="M57.3,13V7h0.9l2.9,4.7l0,0v-1.2V7h0.8v6h-0.8L58,8.1l0,0v1.2V13H57.3z"/>
		<path class="st9" d="M63.3,13V7h0.8v6H63.3z"/>
		<path class="st9" d="M65.5,13V7h2.2c0.5,0,0.9,0.2,1.2,0.5c0.3,0.3,0.5,0.7,0.5,1.2c0,0.3-0.1,0.5-0.2,0.8
			c-0.1,0.2-0.3,0.4-0.6,0.5l0,0c0.3,0.1,0.5,0.3,0.7,0.5s0.3,0.5,0.3,0.9c0,0.5-0.2,0.9-0.5,1.2c-0.4,0.3-0.8,0.5-1.3,0.5h-2.3V13z
			 M66.3,9.6h1.4c0.3,0,0.5-0.1,0.7-0.3c0.2-0.2,0.3-0.4,0.3-0.6S68.5,8.2,68.4,8c-0.2-0.2-0.4-0.3-0.7-0.3h-1.4V9.6z M66.3,12.3
			h1.6c0.3,0,0.5-0.1,0.7-0.3c0.2-0.2,0.3-0.4,0.3-0.7c0-0.2-0.1-0.5-0.3-0.7c-0.2-0.2-0.4-0.3-0.7-0.3h-1.5L66.3,12.3L66.3,12.3z"
			/>
		<path class="st9" d="M70.6,13V7h0.8v5.3H74V13H70.6z"/>
		<path class="st9" d="M78.5,7.7h-2.7v1.9h2.5v0.7h-2.5v1.9h2.7V13H75V7h3.5V7.7z"/>
		<path class="st9" d="M83.1,13.1c-0.4,0-0.9-0.1-1.3-0.4S81.1,12,81,11.5l0.7-0.3c0.1,0.3,0.3,0.6,0.5,0.8c0.3,0.2,0.6,0.3,0.9,0.3
			s0.6-0.1,0.9-0.3c0.2-0.2,0.4-0.4,0.4-0.7c0-0.3-0.1-0.6-0.4-0.8c-0.2-0.2-0.6-0.4-1.1-0.5c-0.5-0.2-0.9-0.4-1.2-0.6
			c-0.3-0.3-0.4-0.6-0.4-1s0.2-0.8,0.5-1.1c0.3-0.3,0.8-0.5,1.3-0.5s0.9,0.1,1.2,0.4c0.3,0.3,0.5,0.5,0.6,0.8l-0.7,0.3
			c-0.1-0.2-0.2-0.4-0.4-0.5c-0.2-0.2-0.5-0.2-0.8-0.2s-0.5,0.1-0.8,0.2C82,8,81.9,8.2,81.9,8.4S82,8.8,82.2,9
			c0.2,0.2,0.5,0.3,0.9,0.4c0.3,0.1,0.5,0.2,0.7,0.3c0.2,0.1,0.4,0.2,0.6,0.4c0.2,0.1,0.4,0.3,0.5,0.6c0.1,0.2,0.2,0.5,0.2,0.8
			s-0.1,0.6-0.2,0.8c-0.1,0.2-0.3,0.4-0.5,0.5S84,13,83.8,13.1C83.6,13.1,83.4,13.1,83.1,13.1z"/>
		<path class="st9" d="M88.3,13.1c-0.7,0-1.2-0.2-1.6-0.7c-0.4-0.4-0.6-1-0.6-1.7V7h0.8v3.8c0,0.5,0.1,0.9,0.4,1.2
			c0.2,0.3,0.6,0.4,1.1,0.4s0.8-0.1,1.1-0.4c0.2-0.3,0.4-0.7,0.4-1.2V7h0.8v3.8c0,0.7-0.2,1.3-0.6,1.7C89.6,12.9,89,13.1,88.3,13.1z
			"/>
		<path class="st9" d="M91.8,13V7h2c0.5,0,0.9,0.2,1.3,0.5s0.6,0.8,0.6,1.3c0,0.4-0.1,0.8-0.4,1.1c-0.3,0.3-0.6,0.5-1,0.6l0,0
			l1.7,2.4l0,0h-0.9l-1.6-2.4h-0.9V13H91.8z M92.6,9.8h1.2c0.3,0,0.6-0.1,0.8-0.3c0.2-0.2,0.3-0.5,0.3-0.8S94.8,8.2,94.6,8
			c-0.2-0.2-0.5-0.3-0.8-0.3h-1.3v2.1H92.6z"/>
	</g>
</g>
</svg>
