<?xml version="1.0" encoding="utf-8"?>
<!-- Generator: Adobe Illustrator 19.2.1, SVG Export Plug-In . SVG Version: 6.00 Build 0)  -->
<svg version="1.1" id="Calque_1" xmlns="http://www.w3.org/2000/svg" xmlns:xlink="http://www.w3.org/1999/xlink" x="0px" y="0px"
	 viewBox="0 0 61.1 89.2" style="enable-background:new 0 0 61.1 89.2;" xml:space="preserve">
<style type="text/css">
	.st0{fill:#333333;}
	.st1{fill:none;}
</style>
<path id="SVGID_1_" class="st0" d="M54.5,74.3H5.9V8.4h48.6V74.3z M42.8,83c-1,0-1.7-0.8-1.7-1.7c0-1,0.8-1.7,1.7-1.7
	c1,0,1.7,0.8,1.7,1.7C44.6,82.2,43.8,83,42.8,83z M38.1,83c-1,0-1.7-0.8-1.7-1.7c0-1,0.8-1.7,1.7-1.7s1.7,0.8,1.7,1.7
	C39.8,82.2,39,83,38.1,83z M34.4,83.4c0,0.9-0.7,1.7-1.7,1.7h-4.4c-0.9,0-1.7-0.7-1.7-1.7V79c0-0.9,0.7-1.7,1.7-1.7h4.4
	c0.9,0,1.7,0.7,1.7,1.7V83.4z M23.1,83c-1,0-1.7-0.8-1.7-1.7c0-1,0.8-1.7,1.7-1.7c0.9,0,1.7,0.8,1.7,1.7C24.8,82.2,24,83,23.1,83z
	 M18.3,83c-1,0-1.7-0.8-1.7-1.7c0-1,0.8-1.7,1.7-1.7c1,0,1.7,0.8,1.7,1.7S19.2,83,18.3,83z M58.6,0H2.5C1.1,0,0,1.2,0,2.5v82.6
	c0,1.4,1.2,2.5,2.5,2.5c0,0,14.3,1.6,29.7,1.6s26.4-1.6,26.4-1.6c1.4,0,2.5-1.2,2.5-2.5V2.5C61,1.2,59.9,0,58.6,0z"/>
<path class="st1" d="M54.5,74.3H5.9V8.4h48.6V74.3z M42.8,83c-1,0-1.7-0.8-1.7-1.7c0-1,0.8-1.7,1.7-1.7c1,0,1.7,0.8,1.7,1.7
	C44.6,82.2,43.8,83,42.8,83z M38.1,83c-1,0-1.7-0.8-1.7-1.7c0-1,0.8-1.7,1.7-1.7s1.7,0.8,1.7,1.7C39.8,82.2,39,83,38.1,83z
	 M34.4,83.4c0,0.9-0.7,1.7-1.7,1.7h-4.4c-0.9,0-1.7-0.7-1.7-1.7V79c0-0.9,0.7-1.7,1.7-1.7h4.4c0.9,0,1.7,0.7,1.7,1.7V83.4z M23.1,83
	c-1,0-1.7-0.8-1.7-1.7c0-1,0.8-1.7,1.7-1.7c0.9,0,1.7,0.8,1.7,1.7C24.8,82.2,24,83,23.1,83z M18.3,83c-1,0-1.7-0.8-1.7-1.7
	c0-1,0.8-1.7,1.7-1.7c1,0,1.7,0.8,1.7,1.7S19.2,83,18.3,83z M58.6,0H2.5C1.1,0,0,1.2,0,2.5v82.6c0,1.4,1.2,2.5,2.5,2.5
	c0,0,14.3,1.6,29.7,1.6s26.4-1.6,26.4-1.6c1.4,0,2.5-1.2,2.5-2.5V2.5C61,1.2,59.9,0,58.6,0z"/>
<rect id="SVGID_5_" x="8.2" y="20.5" class="st0" width="44.5" height="1.8"/>
<rect x="8.2" y="20.5" class="st1" width="44.5" height="1.8"/>
<rect id="SVGID_9_" x="8.2" y="26.3" class="st0" width="44.5" height="1.8"/>
<rect x="8.2" y="26.3" class="st1" width="44.5" height="1.8"/>
<rect id="SVGID_13_" x="8.2" y="32.1" class="st0" width="44.5" height="1.8"/>
<rect x="8.2" y="32.1" class="st1" width="44.5" height="1.8"/>
<rect id="SVGID_17_" x="8.2" y="37.9" class="st0" width="44.5" height="1.8"/>
<rect x="8.2" y="37.9" class="st1" width="44.5" height="1.8"/>
<rect id="SVGID_21_" x="8.2" y="43.7" class="st0" width="44.5" height="1.8"/>
<rect x="8.2" y="43.7" class="st1" width="44.5" height="1.8"/>
<rect id="SVGID_25_" x="8.2" y="49.4" class="st0" width="44.5" height="1.8"/>
<rect x="8.2" y="49.4" class="st1" width="44.5" height="1.8"/>
<rect id="SVGID_29_" x="8.2" y="55.2" class="st0" width="44.5" height="1.8"/>
<rect x="8.2" y="55.2" class="st1" width="44.5" height="1.8"/>
<rect id="SVGID_33_" x="8.2" y="61" class="st0" width="44.5" height="1.8"/>
<rect x="8.2" y="61" class="st1" width="44.5" height="1.8"/>
<rect id="SVGID_37_" x="8.2" y="66.8" class="st0" width="44.5" height="1.8"/>
<rect x="8.2" y="66.8" class="st1" width="44.5" height="1.8"/>
</svg>
