<?xml version="1.0" encoding="utf-8"?>
<!-- Generator: Adobe Illustrator 19.2.1, SVG Export Plug-In . SVG Version: 6.00 Build 0)  -->
<svg version="1.1" id="Calque_1" xmlns="http://www.w3.org/2000/svg" xmlns:xlink="http://www.w3.org/1999/xlink" x="0px" y="0px"
	 viewBox="0 0 40.2 72" style="enable-background:new 0 0 40.2 72;" xml:space="preserve">
<style type="text/css">
	.st0{fill:none;}
	.st1{fill:#333333;}
</style>
<circle class="st0" cx="21.6" cy="65.5" r="2.6"/>
<path class="st1" d="M33.4,0H7C3.2,0,0.2,3,0.2,6.8v58.4C0.2,69,3.2,72,7,72h26.4c3.8,0,6.8-3,6.8-6.8V6.8C40.2,3,37.1,0,33.4,0z
	 M21.6,68.1c-1.4,0-2.6-1.2-2.6-2.6c0-1.4,1.2-2.6,2.6-2.6c1.4,0,2.6,1.2,2.6,2.6C24.1,67,23,68.1,21.6,68.1z M35.2,59h-30V10h30V59
	z"/>
</svg>
