<?xml version="1.0" encoding="utf-8"?>
<!-- Generator: Adobe Illustrator 19.2.1, SVG Export Plug-In . SVG Version: 6.00 Build 0)  -->
<svg version="1.1" id="Calque_1" xmlns="http://www.w3.org/2000/svg" xmlns:xlink="http://www.w3.org/1999/xlink" x="0px" y="0px"
	 viewBox="0 0 67 90" style="enable-background:new 0 0 67 90;" xml:space="preserve">
<style type="text/css">
	.st0{fill:none;}
	.st1{fill:#333333;}
</style>
<ellipse class="st0" cx="33.5" cy="84" rx="1.9" ry="1.9"/>
<path class="st1" d="M61.9,0H4.7C1.9,0,0,2.7,0,5.5v79C0,87.3,1.9,90,4.7,90h57.2c2.8,0,5.1-2.7,5.1-5.5v-79C67,2.7,64.7,0,61.9,0z
	 M33.5,85.9c-1.1,0-1.9-0.9-1.9-1.9c0-1.1,0.9-1.9,1.9-1.9c1.1,0,1.9,0.9,1.9,1.9C35.4,85.1,34.6,85.9,33.5,85.9z M62,78H6V6h56V78z
	"/>
</svg>
